<?xml version="1.0" encoding="utf-8"?>
<!-- Generator: Adobe Illustrator 23.0.2, SVG Export Plug-In . SVG Version: 6.00 Build 0)  -->
<svg version="1.1" id="Layer_1" xmlns="http://www.w3.org/2000/svg" xmlns:xlink="http://www.w3.org/1999/xlink" x="0px" y="0px"
	 viewBox="0 0 40 40" style="enable-background:new 0 0 40 40;" xml:space="preserve">
<style type="text/css">
	.st0{fill:#FFFFFF;}
</style>
<g id="guides">
</g>
<g id="Layer_2">
</g>
<g>
	<g>
	</g>
	<g>
		<path class="st0" d="M14.2,25l-0.3-8.5c0-0.9-0.6-1.7-1.4-2l0-4.9c0-0.2,0-0.4-0.1-0.6c-0.2-0.7-0.6-1.3-1.2-1.7L8.6,5.3
			C8.4,5.1,8.2,5,8,5C7.8,5,7.7,5.1,7.6,5.3C7.5,5.5,7.4,5.7,7.4,5.9l0,8.6c-0.8,0.2-1.3,1-1.4,2L5.8,25C5.3,25.2,5,25.7,5,26.3v7.3
			C5,34.4,5.5,35,6.2,35h7.6c0.7,0,1.2-0.6,1.2-1.4v-7.3C15,25.7,14.7,25.2,14.2,25z M8.8,33h-2v-6h2V33z M6.8,25l0.3-8.5
			c0-0.6,0.3-1,0.6-1l4.5,0c0.3,0.1,0.6,0.5,0.6,1.1l0.3,8.5H6.8z"/>
		<g>
			<path class="st0" d="M33.6,19h-1.1H31h-7h-0.2h-2.4c-0.8,0-1.4,0.5-1.4,1.2v1.3c0,0,0,1.2,0.6,2.9c0,0,0,0,0,0l2.3,7.1
				c0,0,0.4,1.5,0.4,1.9v1c0,0.3,0.3,0.6,0.7,0.6h7.2c0.4,0,0.7-0.3,0.7-0.6v-0.5c0-0.4,0.2-1.2,0.3-1.8l0.5-2l1.8-5.7c0,0,0,0,0,0
				c0.4-1.2,0.6-3.1,0.6-3.1v-1.2C35,19.5,34.4,19,33.6,19z M34,21.4c0,0-0.2,1.7-0.5,2.8l-1.8,5.7l-0.5,2c-0.1,0.7-0.3,1.6-0.3,2
				V34h-6.6v-0.6c0-0.1,0-0.5-0.4-2.1l0-0.1l-2.3-7.1C21,22.5,21,21.5,21,21.5v-1.3c0-0.1,0.1-0.2,0.4-0.2h12.3
				c0.2,0,0.4,0.1,0.4,0.2V21.4z"/>
			<path class="st0" d="M27.9,22.9l-1.1,5.9l-1.4-5.9h-2.1c0,0,0,0,0,0l2.3,7.8l0,0.1c0.2,0.7,0.3,1.2,0.3,1.6h2.8
				c0-0.3,0.1-0.6,0.2-1l0-0.1l0.6-2.3l1.8-6.1c0,0,0,0,0-0.1H27.9z"/>
			<path class="st0" d="M29.5,13h-4c-0.6,0-1,0.4-1,1v2c0,0.6,0.4,1,1,1h4c0.6,0,1-0.4,1-1v-2C30.5,13.4,30.1,13,29.5,13z"/>
		</g>
		<polygon class="st0" points="30.7,7.7 31.5,5 32.3,7.7 35,8.5 32.3,9.3 31.5,12 30.7,9.3 28,8.5 		"/>
	</g>
</g>
</svg>
