<?xml version="1.0" encoding="utf-8"?>
<!-- Generator: Adobe Illustrator 23.0.2, SVG Export Plug-In . SVG Version: 6.00 Build 0)  -->
<svg version="1.1" id="Layer_1" xmlns="http://www.w3.org/2000/svg" xmlns:xlink="http://www.w3.org/1999/xlink" x="0px" y="0px"
	 viewBox="0 0 40 40" style="enable-background:new 0 0 40 40;" xml:space="preserve">
<style type="text/css">
	.st0{fill:#FFFFFF;}
</style>
<g id="guides">
</g>
<g id="Layer_2">
</g>
<g>
	<g>
	</g>
	<g>
		<circle class="st0" cx="13.9" cy="26.1" r="1.5"/>
		<circle class="st0" cx="12.6" cy="21.3" r="1.5"/>
		<circle class="st0" cx="15.1" cy="16.7" r="1.5"/>
		<circle class="st0" cx="20" cy="14.6" r="1.5"/>
		<g>
			<path class="st0" d="M25.6,6c0,0-4.2,3.3-1.9,6.6c1.7,2.4,3.1,1.2,3.8,0.2c0.4-0.5,0.6-1.2,0.5-1.8c-0.1-0.6-0.4-1.4-1.2-2
				C25,7.8,25.6,6,25.6,6z"/>
		</g>
		<g>
			<path class="st0" d="M20.9,29.3c0-0.8,0.6-1.6,1.3-1.9c0-0.3-0.1-0.7-0.1-1c-1.3,0.4-2.2,1.5-2.2,2.9c0,0.8,0.4,1.4,0.7,1.9
				l0.1,0.1l0.1,0.1c0.2,0.2,0.2,0.3,0.2,0.6c0,0.5-0.5,1-1,1c-6.1,0-11-4.9-11-11s4.9-11,11-11c0,0,0,0,0,0c0-0.3,0-0.7,0-1
				c0,0,0,0,0,0c-6.7,0-12,5.3-12,12s5.3,12,12,12c1.1,0,2-0.9,2-2c0-0.5-0.1-0.9-0.5-1.3C21.2,30.3,20.9,29.9,20.9,29.3z"/>
			<path class="st0" d="M29.9,14.6C29.9,14.6,29.9,14.6,29.9,14.6c-0.2,0.3-0.4,0.5-0.7,0.8c1.1,1.5,1.8,3.3,1.8,5.3
				c0,1.8-0.8,3.3-2,4.3c0,0.4-0.1,0.9-0.2,1.3c1.9-1.2,3.1-3.2,3.1-5.7C32,18.4,31.2,16.3,29.9,14.6z"/>
		</g>
		<path class="st0" d="M25.7,16.2C25.7,16.2,25.7,16.2,25.7,16.2c-0.4,0-0.9-0.1-1.3-0.2c-0.5,0.9-0.9,2.1-0.9,3.5
			c0,1.9,0.9,8.3,1.4,14c0.1,0.7,1,0.7,1.1,0c0.6-5.8,1.4-12.1,1.4-14c0-1.3-0.4-2.5-0.8-3.4C26.3,16.2,26,16.2,25.7,16.2z"/>
	</g>
</g>
</svg>
