<?xml version="1.0" encoding="utf-8"?>
<!-- Generator: Adobe Illustrator 23.0.2, SVG Export Plug-In . SVG Version: 6.00 Build 0)  -->
<svg version="1.1" id="Layer_1" xmlns="http://www.w3.org/2000/svg" xmlns:xlink="http://www.w3.org/1999/xlink" x="0px" y="0px"
	 viewBox="0 0 40 40" style="enable-background:new 0 0 40 40;" xml:space="preserve">
<style type="text/css">
	.st0{fill:#FFFFFF;}
</style>
<g id="guides">
</g>
<g id="Layer_2">
</g>
<g>
	<g>
	</g>
	<g>
		<g>
			<path class="st0" d="M27.3,35c0,0-2.3-0.1-2.3-0.1c-5.4-0.2-9.8-1.2-13.1-2.8c-1.5-0.7-2.4-2.1-2.4-3.8c0-1.7,1-3.2,2.5-3.9
				c1.7-0.8,2.7-1.8,2.6-2.9C14.1,17.7,5,17.8,5,17.5c0-0.3,10-0.3,10.5,3.9c0.1,1.1-0.3,2.7-3,3.9c-1.2,0.6-1.9,1.7-1.9,3
				c0,1.3,0.7,2.3,1.8,2.9c3.2,1.5,10.2,2,15.5,2.3c0.3,0-0.4,0.5-0.4,0.8C27.4,34.6,27.6,35,27.3,35z"/>
		</g>
		<g>
			<path class="st0" d="M31.5,12L31.5,12l2.5,7.1c0,0,0,0.1,0,0.1L28,30l-6-10.8c0,0,0,0,0-0.1l2.5-7.1H31.5 M31.5,11h-7
				c-0.4,0-0.8,0.3-1,0.7l-2.5,7.1c-0.1,0.3-0.1,0.6,0.1,0.9l6,10.8c0.2,0.4,0.5,0.5,0.9,0.5s0.7-0.2,0.9-0.5l6-10.8
				c0.1-0.3,0.2-0.6,0.1-0.9l-2.5-7.1C32.3,11.3,31.9,11,31.5,11L31.5,11z"/>
			<circle class="st0" cx="28" cy="17.5" r="1.5"/>
			<g>
				<rect x="27.6" y="17.5" class="st0" width="0.8" height="12.5"/>
			</g>
			<path class="st0" d="M32.7,5l-0.5,5.5h-8.4L23.3,5h-1.5l0.5,5.9c0.1,0.6,0.6,1.1,1.2,1.1h9c0.6,0,1.1-0.5,1.2-1.1L34.2,5H32.7z"
				/>
		</g>
	</g>
</g>
</svg>
