<?xml version="1.0" encoding="utf-8"?>
<!-- Generator: Adobe Illustrator 23.0.2, SVG Export Plug-In . SVG Version: 6.00 Build 0)  -->
<svg version="1.1" id="Layer_1" xmlns="http://www.w3.org/2000/svg" xmlns:xlink="http://www.w3.org/1999/xlink" x="0px" y="0px"
	 viewBox="0 0 40 40" style="enable-background:new 0 0 40 40;" xml:space="preserve">
<style type="text/css">
	.st0{fill:none;}
	.st1{fill:#FFFFFF;}
</style>
<g id="guides">
</g>
<g id="Layer_2">
</g>
<g>
	<g>
		<rect class="st0" width="40" height="40"/>
	</g>
	<g>
		<path class="st1" d="M25,29H9c-0.6,0-1,0.4-1,1v4c0,0.6,0.4,1,1,1h16c0.6,0,1-0.4,1-1v-4C26,29.4,25.6,29,25,29z M25,34H9v-4h16
			V34z"/>
		<g>
			<g>
				<path class="st1" d="M9,12.3v-0.9l4-2.6v1.1l-3,1.9v0l3,1.9v1.1L9,12.3z"/>
				<path class="st1" d="M18.2,7.9h1l-3.5,9h-1L18.2,7.9z"/>
				<path class="st1" d="M21,13.8l3-1.9v0l-3-1.9V8.8l4,2.6v0.9l-4,2.6V13.8z"/>
			</g>
			<path class="st1" d="M27,5H7C5.9,5,5,5.9,5,7v12.5c0,1.1,0.9,2,2,2h8l-0.5,3h-2c-0.3,0-0.5,0.2-0.5,0.5c0,0.3,0.2,0.5,0.5,0.5h9
				c0.3,0,0.5-0.2,0.5-0.5c0-0.3-0.2-0.5-0.5-0.5h-2l-0.5-3h8c1.1,0,2-0.9,2-2V7C29,5.9,28.1,5,27,5z M16.1,20.1
				c0-0.5,0.4-0.9,0.9-0.9c0.5,0,0.9,0.4,0.9,0.9S17.5,21,17,21C16.5,21,16.1,20.6,16.1,20.1z M27.8,18.7H6.2V7
				c0-0.4,0.4-0.8,0.8-0.8h20c0.4,0,0.8,0.4,0.8,0.8V18.7z"/>
		</g>
		<rect x="16.4" y="31.4" class="st1" width="1.2" height="1.2"/>
		<rect x="13.8" y="31.4" class="st1" width="1.2" height="1.2"/>
		<rect x="11.2" y="31.4" class="st1" width="1.2" height="1.2"/>
		<rect x="19" y="31.4" class="st1" width="1.2" height="1.2"/>
		<rect x="21.6" y="31.4" class="st1" width="1.2" height="1.2"/>
		<path class="st1" d="M32.2,27c-1.5,0-2.8,1.3-2.8,2.8v2.4c0,1.5,1.3,2.8,2.8,2.8c1.5,0,2.8-1.3,2.8-2.8v-2.4
			C35,28.3,33.7,27,32.2,27z M32.9,30.8c0,0.4-0.3,0.7-0.7,0.7s-0.7-0.3-0.7-0.7v-1.6c0-0.4,0.3-0.7,0.7-0.7s0.7,0.3,0.7,0.7V30.8z"
			/>
	</g>
</g>
</svg>
