<?xml version="1.0" encoding="utf-8"?>
<!-- Generator: Adobe Illustrator 23.0.2, SVG Export Plug-In . SVG Version: 6.00 Build 0)  -->
<svg version="1.1" id="Layer_1" xmlns="http://www.w3.org/2000/svg" xmlns:xlink="http://www.w3.org/1999/xlink" x="0px" y="0px"
	 viewBox="0 0 40 40" style="enable-background:new 0 0 40 40;" xml:space="preserve">
<style type="text/css">
	.st0{fill:none;}
	.st1{fill:#FFFFFF;}
</style>
<g id="guides">
</g>
<g id="Layer_2">
</g>
<g>
	<g>
		<rect class="st0" width="40" height="40"/>
	</g>
	<g>
		<g>
			<path class="st1" d="M31.3,13.3l-3.2-1.9c-0.1-0.1-0.3,0-0.3,0.2v3.8c0,0.2,0.2,0.3,0.3,0.2l3.2-1.9
				C31.5,13.6,31.5,13.4,31.3,13.3z"/>
			<path class="st1" d="M32.9,7.8h-0.2l-0.6-2.3C32.2,5.2,31.9,5,31.6,5h-4.1c-0.3,0-0.6,0.2-0.7,0.5l-0.6,2.3h-0.2
				c-1.1,0-2.1,1-2.1,2.1V17c0,1.2,0.9,2.1,2.1,2.1h0.2l0.6,2.3c0.1,0.3,0.4,0.5,0.7,0.5h4.1c0.3,0,0.6-0.2,0.7-0.5l0.6-2.3h0.2
				c1.1,0,2.1-1,2.1-2.1V10C35,8.8,34.1,7.8,32.9,7.8z M34.1,17.2c0,0.5-0.4,1-1,1h-7.3c-0.5,0-1-0.4-1-1V9.8c0-0.5,0.4-1,1-1h7.3
				c0.5,0,1,0.4,1,1V17.2z"/>
		</g>
		<g>
			<g>
				<path class="st1" d="M22.7,25.1c-0.3-2-1.9-3.4-3.9-3.5l-0.1,0c0,0-0.1,0-0.1,0h-8.1c-2.1,0-3.9,1.5-4.2,3.5l-1.2,6.7
					C5,31.9,5,32.1,5,32.3C5,33.8,6.2,35,7.7,35c0.9,0,1.7-0.4,2.2-1.2l0.6-0.8c0.2-0.2,0.1-0.6-0.1-0.8c-0.2-0.2-0.6-0.1-0.8,0.1
					L9,33.2c-0.3,0.4-0.8,0.7-1.3,0.7c-0.9,0-1.6-0.7-1.6-1.6c0-0.1,0-0.2,0-0.3l1.2-6.7c0.3-1.5,1.6-2.6,3.1-2.6h8.1l0.1,0
					c0,0,0,0,0.1,0c1.5,0.1,2.7,1.2,2.9,2.6l1.2,6.7c0,0.1,0,0.2,0,0.3c0,0.9-0.7,1.6-1.6,1.6c-0.5,0-1-0.3-1.3-0.7l-0.6-0.9
					c-0.2-0.2-0.5-0.3-0.8-0.1c-0.2,0.2-0.3,0.5-0.1,0.8l0.6,0.9c0.5,0.7,1.3,1.2,2.2,1.2c1.5,0,2.7-1.2,2.7-2.7
					c0-0.2,0-0.4-0.1-0.5L22.7,25.1z"/>
				<circle class="st1" cx="17.1" cy="28.9" r="0.8"/>
				<path class="st1" d="M11.8,24.8c-0.4,0-0.7,0.3-0.7,0.7v1h-1c-0.4,0-0.7,0.3-0.7,0.7S9.6,28,10,28h1v1c0,0.4,0.3,0.7,0.7,0.7
					c0.4,0,0.7-0.3,0.7-0.7v-1h1c0.4,0,0.7-0.3,0.7-0.7s-0.3-0.7-0.7-0.7h-1v-1C12.5,25.1,12.2,24.8,11.8,24.8z"/>
				<circle class="st1" cx="19.4" cy="26.7" r="0.8"/>
			</g>
			<g>
				<path class="st1" d="M17.6,15.2c0.2,0,0.4-0.1,0.5-0.2c0.2-0.3,0.1-0.6-0.1-0.8c-1-0.7-2.2-1.1-3.4-1.1s-2.4,0.4-3.4,1.1
					c-0.3,0.2-0.3,0.5-0.1,0.8c0.2,0.3,0.5,0.3,0.8,0.1c0.8-0.6,1.8-0.9,2.8-0.9s1.9,0.3,2.8,0.9C17.4,15.2,17.5,15.2,17.6,15.2z"/>
				<path class="st1" d="M14.5,17.2c-0.6,0-1.1,0.2-1.5,0.5c-0.3,0.2-0.3,0.5-0.1,0.8c0.1,0.2,0.3,0.2,0.5,0.2c0.1,0,0.2,0,0.3-0.1
					c0.5-0.4,1.2-0.4,1.8,0c0.3,0.2,0.6,0.1,0.8-0.1c0.2-0.3,0.1-0.6-0.1-0.8C15.6,17.3,15.1,17.2,14.5,17.2z"/>
				<path class="st1" d="M20.3,11.6c0.2-0.3,0.1-0.6-0.1-0.8C18.5,9.6,16.5,9,14.5,9s-4,0.6-5.6,1.8c-0.3,0.2-0.3,0.5-0.1,0.8
					c0.1,0.2,0.3,0.2,0.5,0.2c0.1,0,0.2,0,0.3-0.1c1.4-1,3.2-1.6,4.9-1.6s3.5,0.5,4.9,1.6C19.7,11.9,20.1,11.8,20.3,11.6z"/>
			</g>
		</g>
	</g>
</g>
</svg>
