<?xml version="1.0" encoding="utf-8"?>
<!-- Generator: Adobe Illustrator 23.0.2, SVG Export Plug-In . SVG Version: 6.00 Build 0)  -->
<svg version="1.1" id="Layer_1" xmlns="http://www.w3.org/2000/svg" xmlns:xlink="http://www.w3.org/1999/xlink" x="0px" y="0px"
	 viewBox="0 0 40 40" style="enable-background:new 0 0 40 40;" xml:space="preserve">
<style type="text/css">
	.st0{fill:#FFFFFF;}
</style>
<g id="guides">
</g>
<g id="Layer_2">
</g>
<g>
	<g>
	</g>
	<g>
		<path class="st0" d="M25,5H15c-1.7,0-3,1.3-3,3v24c0,1.7,1.3,3,3,3h10c1.7,0,3-1.3,3-3V8C28,6.3,26.7,5,25,5z M27,32
			c0,1.1-0.9,2-2,2H15c-1.1,0-2-0.9-2-2V8c0-1.1,0.9-2,2-2h2v0.8c0,0.4,0.3,0.8,0.8,0.8h4.5c0.4,0,0.8-0.3,0.8-0.8V6h2
			c1.1,0,2,0.9,2,2V32z"/>
		<path class="st0" d="M22.6,32h-5.2c-0.2,0-0.4-0.2-0.4-0.4l0,0c0-0.2,0.2-0.4,0.4-0.4h5.2c0.2,0,0.4,0.2,0.4,0.4l0,0
			C23,31.8,22.8,32,22.6,32z"/>
	</g>
</g>
</svg>
