<?xml version="1.0" encoding="utf-8"?>
<!-- Generator: Adobe Illustrator 23.0.2, SVG Export Plug-In . SVG Version: 6.00 Build 0)  -->
<svg version="1.1" id="Layer_1" xmlns="http://www.w3.org/2000/svg" xmlns:xlink="http://www.w3.org/1999/xlink" x="0px" y="0px"
	 viewBox="0 0 40 40" style="enable-background:new 0 0 40 40;" xml:space="preserve">
<style type="text/css">
	.st0{fill-rule:evenodd;clip-rule:evenodd;fill:#FFFFFF;}
</style>
<g id="guides">
</g>
<g id="Layer_2">
</g>
<g>
	<g>
	</g>
	<polygon class="st0" points="21.8,21.2 21.5,20 21.6,19.4 22,18.8 23.3,17.7 24.9,17.8 26.6,17.7 26.9,18 27.3,17.9 27.7,17.4 
		27.8,15.2 27.2,14.3 26.9,14.3 26.3,13.8 26.2,12 25.9,11.3 24.4,9.7 23.9,9.6 23.1,9.7 22.8,10.3 22.1,10.6 21.5,10.4 21.3,10 
		20.7,10 18.8,11.3 18.7,10.7 19.2,8.9 19.2,7.2 18,7 18,5.9 17.6,5.4 17.4,5.5 17.4,5 16.8,5.8 15.9,6.1 14.6,7.1 13.1,7.3 
		12.5,8.7 12.5,9.4 12.2,9.7 12.8,11.3 14,12.2 14.1,13.8 14.4,13.8 14.6,14.1 14.1,14.8 14,15.5 13.4,16.2 13.4,16.7 13.6,17.3 
		15,18.5 15.2,20.2 16.2,22.6 15.5,23.9 14.8,24.7 14.4,26 13.6,28.4 13.7,29.9 14.4,29.9 15.3,30.8 17.4,33.5 17.3,32.9 19,33.4 
		19.3,34 19.4,35 20.2,34.4 21,34.4 21.3,34 20,32.6 18.8,32.4 18.1,31.7 17.7,30.1 17.1,29.4 16.7,27.9 15.5,27.9 15.3,25.9 
		15.9,24.4 16.2,23.1 16.8,22.1 17,20.3 16.9,19.5 17.4,19.4 18.7,19.5 18.8,21.2 20.7,21.1 21.5,22 22.2,22.3 22.8,23.1 22.6,22.1 
		21.8,21.2 	"/>
</g>
</svg>
