<?xml version="1.0" encoding="utf-8"?>
<!-- Generator: Adobe Illustrator 23.0.2, SVG Export Plug-In . SVG Version: 6.00 Build 0)  -->
<svg version="1.1" id="Layer_1" xmlns="http://www.w3.org/2000/svg" xmlns:xlink="http://www.w3.org/1999/xlink" x="0px" y="0px"
	 viewBox="0 0 40 40" style="enable-background:new 0 0 40 40;" xml:space="preserve">
<style type="text/css">
	.st0{fill:none;}
	.st1{fill:#FFFFFF;}
</style>
<g id="guides">
</g>
<g id="Layer_2">
</g>
<g>
	<rect class="st0" width="40" height="40"/>
	<path class="st1" d="M20,4C11.2,4,4,11.2,4,20s7.2,16,16,16s16-7.2,16-16S28.8,4,20,4z M10,20c0-1.1,0.9-2,2-2s2,0.9,2,2
		c0,1.1-0.9,2-2,2S10,21.1,10,20z M20,34c-4.6,0-8.4-3.5-8.9-8h17.9C28.4,30.5,24.6,34,20,34z M28,22c-1.1,0-2-0.9-2-2
		c0-1.1,0.9-2,2-2s2,0.9,2,2C30,21.1,29.1,22,28,22z"/>
</g>
</svg>
