<?xml version="1.0" encoding="utf-8"?>
<!-- Generator: Adobe Illustrator 23.0.2, SVG Export Plug-In . SVG Version: 6.00 Build 0)  -->
<svg version="1.1" id="Layer_1" xmlns="http://www.w3.org/2000/svg" xmlns:xlink="http://www.w3.org/1999/xlink" x="0px" y="0px"
	 viewBox="0 0 40 40" style="enable-background:new 0 0 40 40;" xml:space="preserve">
<style type="text/css">
	.st0{fill:#FFFFFF;}
	.st1{fill:none;}
</style>
<g id="guides">
</g>
<g id="Layer_2">
</g>
<g>
	<g>
		<path class="st0" d="M29,10.6C29,7.5,27.4,5,25.4,5c-2,0-3.6,2.5-3.6,5.6c0,2.5,1.2,4.6,2.7,5.3l-0.7,17c0.1,1.2,0.6,2.1,1.5,2.1
			c0.9,0,1.5-0.9,1.5-2.1l-0.7-17C27.8,15.2,29,13.1,29,10.6z"/>
		<path class="st0" d="M15.8,5L15.8,5l-0.1,7h-1.4V5h0h-0.9h0v7H12V5h-0.1H11c0,0,0,7.3,0,7.4c0,1.6,0.9,2.9,2,3.5l-0.7,17
			c0.1,1.2,0.6,2.1,1.5,2.1c0.9,0,1.5-0.9,1.5-2.1l-0.7-17c1.1-0.6,2-1.9,2-3.5c0-0.1,0-7.4,0-7.4H15.8z"/>
	</g>
	<rect y="0" class="st1" width="40" height="40"/>
</g>
</svg>
