<?xml version="1.0" encoding="utf-8"?>
<!-- Generator: Adobe Illustrator 23.0.2, SVG Export Plug-In . SVG Version: 6.00 Build 0)  -->
<svg version="1.1" id="Layer_1" xmlns="http://www.w3.org/2000/svg" xmlns:xlink="http://www.w3.org/1999/xlink" x="0px" y="0px"
	 viewBox="0 0 40 40" style="enable-background:new 0 0 40 40;" xml:space="preserve">
<style type="text/css">
	.st0{fill:#FFFFFF;}
</style>
<g id="guides">
</g>
<g id="Layer_2">
</g>
<g>
	<g>
	</g>
	<g>
		<g>
			<path class="st0" d="M32.8,28.2l-8.6-8.6L24,19.3l0,0l-2.1-2.1l0,0l-0.4-0.4l0,0l-2.1-2.1l0.4-0.4c0.4-0.4,0.4-1,0-1.4
				c-0.4-0.4-1-0.4-1.4,0L12,19.3c-0.4,0.4-0.4,1,0,1.4c0.4,0.4,1,0.4,1.4,0l0.4-0.4l13.4,13.4C28,34.6,29,35,30,35s2-0.4,2.8-1.2
				C34.4,32.3,34.4,29.7,32.8,28.2z M32.1,33.1C31.6,33.7,30.8,34,30,34c-0.8,0-1.6-0.3-2.1-0.9L14.4,19.7l2.8-2.8l1.4-1.4l2.1,2.1
				l-2.1,2.1L19,20l2.1-2.1l2.1,2.1l-2.1,2.1l0.4,0.4l2.1-2.1l8.5,8.5C33.3,30,33.3,32,32.1,33.1z"/>
			<path class="st0" d="M25.8,25.3h-2.8l6.4,6.4c0.4,0.4,1,0.4,1.4,0c0.4-0.4,0.4-1,0-1.4L25.8,25.3z"/>
		</g>
		<circle class="st0" cx="8" cy="15" r="2"/>
		<circle class="st0" cx="9.5" cy="6.5" r="1.5"/>
		<circle class="st0" cx="13" cy="12" r="1"/>
	</g>
</g>
</svg>
