<?xml version="1.0" encoding="utf-8"?>
<!-- Generator: Adobe Illustrator 23.0.2, SVG Export Plug-In . SVG Version: 6.00 Build 0)  -->
<svg version="1.1" id="Layer_1" xmlns="http://www.w3.org/2000/svg" xmlns:xlink="http://www.w3.org/1999/xlink" x="0px" y="0px"
	 viewBox="0 0 40 40" style="enable-background:new 0 0 40 40;" xml:space="preserve">
<style type="text/css">
	.st0{fill:#FFFFFF;}
</style>
<g id="guides">
</g>
<g id="Layer_2">
</g>
<g>
	<g>
	</g>
	<g>
		<path class="st0" d="M35,35H5V5h30v20.2c0.3-0.1,0.6-0.2,1-0.2V4H4v32h32v-5c-0.4,0-0.7-0.1-1-0.2V35z"/>
		<polygon class="st0" points="14.5,18 13.5,18 13,11 15,11 		"/>
		<polygon class="st0" points="18.5,18 17.5,18 17,11 19,11 		"/>
		<path class="st0" d="M14,21L14,21c-0.6,0-1-0.4-1-1v0c0-0.6,0.4-1,1-1h0c0.6,0,1,0.4,1,1v0C15,20.6,14.6,21,14,21z"/>
		<path class="st0" d="M18,21L18,21c-0.6,0-1-0.4-1-1v0c0-0.6,0.4-1,1-1h0c0.6,0,1,0.4,1,1v0C19,20.6,18.6,21,18,21z"/>
		<path class="st0" d="M16,7c5,0,9,4,9,9s-4,9-9,9c-1.3,0-2.5-0.3-3.6-0.7L11,23.6l0,1.5c0,0.5,0,1.4,0,2.3c-1.7-2.1-4-6-4-11.5
			C7,11,11,7,16,7 M16,6C10.5,6,6,10.5,6,16c0,9,6,14,6,14s0-3.8,0-4.8c1.2,0.5,2.6,0.8,4,0.8c5.5,0,10-4.5,10-10
			C26,10.5,21.5,6,16,6L16,6z"/>
		<path class="st0" d="M35,25.2V14.9c-1.6-0.6-3.2-0.9-5-0.9c-0.9,0-1.8,0.1-2.6,0.3c0.1,0.6,0.1,1.1,0.1,1.7
			c0,6.3-5.2,11.5-11.5,11.5c-0.3,0-0.6,0-0.9,0C15,28,15,28.5,15,29c0,2.1,0.5,4.2,1.3,6H35v-4.2c-1.2-0.4-2-1.5-2-2.8
			S33.8,25.6,35,25.2z M23,30.9c-1.1,0-2-0.9-2-2s0.9-2,2-2s2,0.9,2,2S24.1,30.9,23,30.9z"/>
	</g>
</g>
</svg>
