<?xml version="1.0" encoding="utf-8"?>
<!-- Generator: Adobe Illustrator 23.0.2, SVG Export Plug-In . SVG Version: 6.00 Build 0)  -->
<svg version="1.1" id="Layer_1" xmlns="http://www.w3.org/2000/svg" xmlns:xlink="http://www.w3.org/1999/xlink" x="0px" y="0px"
	 viewBox="0 0 40 40" style="enable-background:new 0 0 40 40;" xml:space="preserve">
<style type="text/css">
	.st0{fill:#FFFFFF;}
	.st1{fill:none;}
</style>
<g id="guides">
</g>
<g id="Layer_2">
</g>
<g>
	<g>
		<g>
			<path class="st0" d="M21.3,8.6c-0.5-0.9-1.3-1.7-1.8-2.1c-1.1-0.9-2.1-0.9-2.5-0.8c-0.2,0-0.4,0.1-0.5,0.2
				C15.6,5.3,14.7,5,13.5,5s-2.1,0.3-2.9,0.8c-0.2-0.1-0.3-0.2-0.5-0.2C9.6,5.5,8.6,5.5,7.5,6.5C7,6.9,6.2,7.7,5.7,8.6
				C5,9.7,4.8,10.7,5.2,11.4c0.5,0.8,1.3,1.1,1.9,1.1c-0.2,0.6-0.2,1.1-0.2,1.9c0,1,0.2,1.8,0.7,2.5c0.4,0.6,1,1.1,1.7,1.4
				c1.4,0.6,3.1,0.7,4.2,0.7c1.1,0,2.8-0.1,4.2-0.7c0.8-0.3,1.3-0.8,1.7-1.4c0.5-0.7,0.7-1.5,0.7-2.5c0-0.7-0.1-1.3-0.2-1.9
				c0.6-0.1,1.4-0.3,1.9-1.1C22.2,10.7,22,9.7,21.3,8.6z M7.2,11.7c0,0-1.1-0.2-1.4-0.9c-0.3-0.7,0.6-2.4,1.9-3.6s2.5-1,2.5-1
				C8.3,8.3,7.2,11.7,7.2,11.7z M13.5,18.2L13.5,18.2C13.5,18.2,13.5,18.2,13.5,18.2C13.5,18.2,13.5,18.2,13.5,18.2z M18.8,16.5
				c-0.3,0.5-0.8,0.9-1.4,1.2c-1.1,0.5-2.4,0.6-3.5,0.6v-2.8c0.2-0.1,0.5-0.3,0.7-0.5c0.4-0.4,0.7-0.9,0.7-1.1c0-0.2,0-0.2-0.2-0.3
				c-0.4-0.1-1.1-0.2-1.6-0.2s-1.3,0-1.6,0.2c-0.1,0.1-0.2,0.1-0.2,0.3c0,0.2,0.2,0.7,0.7,1.1c0.3,0.2,0.5,0.4,0.7,0.5v2.8
				c-1,0-2.4-0.1-3.5-0.6c-0.6-0.3-1.1-0.7-1.4-1.2c-0.4-0.6-0.6-1.3-0.6-2.1c0-0.6,0.1-1.1,0.2-1.7l0.2-0.9
				c1.4-3.8,2.5-5.1,2.5-5.1L11,6.4c0.7-0.5,1.5-0.7,2.5-0.7c1,0,1.8,0.2,2.5,0.7l0.4,0.3c0,0,1.7,2.3,2.5,5.1l0.2,0.9
				c0.1,0.5,0.2,1.1,0.2,1.7C19.4,15.2,19.2,15.9,18.8,16.5z M21.3,10.9c-0.3,0.7-1.4,0.9-1.4,0.9s-1.1-3.4-3-5.4c0,0,1.2-0.2,2.5,1
				S21.6,10.2,21.3,10.9z"/>
			<path class="st0" d="M11.8,10.2c-0.4,0-0.7,0.3-0.7,0.7c0,0.4,0.3,0.7,0.7,0.7c0.4,0,0.7-0.3,0.7-0.7
				C12.5,10.5,12.2,10.2,11.8,10.2z"/>
			<path class="st0" d="M15.2,10.2c-0.4,0-0.7,0.3-0.7,0.7s0.3,0.7,0.7,0.7c0.4,0,0.7-0.3,0.7-0.7C16,10.5,15.6,10.2,15.2,10.2z"/>
		</g>
		<g>
			<path class="st0" d="M32.7,28.8c0-0.1,0-0.3,0-0.4l2.3-0.7l-0.2-0.7l-2.1,0.7c0-0.2-0.1-0.3-0.1-0.4l0.1-0.1
				c0-0.1,1.2-2.4,0.4-4.8L32.9,22l-0.3,0c-0.1,0-2.2-0.1-3.6,1.1L29,23.2c-0.8-0.3-1.6-0.5-2.5-0.5c-0.9,0-1.7,0.2-2.5,0.5
				l-0.1-0.1c-1.4-1.2-3.5-1.1-3.6-1.1l-0.3,0L20,22.3c-0.8,2.4,0.4,4.7,0.4,4.8l0.1,0.1c0,0.1-0.1,0.3-0.1,0.4l-2.1-0.7L18,27.7
				l2.3,0.7c0,0.1,0,0.3,0,0.4c0,1.1,0.3,2.1,0.8,3l-2.4,0.9l0.3,0.7l2.5-0.9c1.1,1.5,3,2.5,5,2.5c2.1,0,3.9-1,5-2.5l2.5,0.9
				l0.3-0.7L32,31.8C32.5,31,32.7,29.9,32.7,28.8z M32.3,22.8c0.3,1.3,0,2.6-0.2,3.4c-0.5-1.1-1.4-2-2.4-2.6
				C30.6,22.9,31.8,22.8,32.3,22.8z M20.7,22.8c0.5,0,1.7,0.1,2.6,0.8c-1,0.6-1.9,1.5-2.4,2.6C20.6,25.4,20.3,24.1,20.7,22.8z
				 M26.5,34.2c-1.7,0-3.2-0.8-4.2-2l0.9-0.3l-0.3-0.7l-1.1,0.4c-0.5-0.8-0.8-1.7-0.8-2.7c0-0.1,0-0.1,0-0.2l2,0.7l0.2-0.7l-2.2-0.7
				c0.5-2.5,2.7-4.4,5.4-4.4c2.7,0,4.9,1.9,5.4,4.4l-2.2,0.7l0.2,0.7l2-0.7c0,0.1,0,0.1,0,0.2c0,1-0.3,1.9-0.8,2.7l-1.1-0.4
				l-0.3,0.7l0.9,0.3C29.7,33.4,28.2,34.2,26.5,34.2z"/>
			<path class="st0" d="M24.8,26.4c-0.4,0-0.7,0.3-0.7,0.7c0,0.4,0.3,0.7,0.7,0.7c0.4,0,0.7-0.3,0.7-0.7
				C25.5,26.8,25.2,26.4,24.8,26.4z"/>
			<path class="st0" d="M28.2,26.4c-0.4,0-0.7,0.3-0.7,0.7s0.3,0.7,0.7,0.7c0.4,0,0.7-0.3,0.7-0.7S28.6,26.4,28.2,26.4z"/>
			<path class="st0" d="M27.5,29.7c-0.2-0.1-0.7-0.1-1-0.1c-0.3,0-0.8,0-1,0.1c-0.1,0-0.1,0-0.1,0.2c0,0.1,0.1,0.4,0.4,0.7
				c0.3,0.3,0.5,0.4,0.7,0.4c0.1,0,0.4-0.1,0.7-0.4c0.3-0.3,0.4-0.5,0.4-0.7C27.6,29.8,27.6,29.7,27.5,29.7z"/>
		</g>
		<g>
			<path class="st0" d="M10.4,27.3C10.4,27.3,10.4,27.3,10.4,27.3C10.4,27.3,10.4,27.3,10.4,27.3C10.4,27.2,10.4,27.2,10.4,27.3
				l0.1-0.2c0,0,0,0,0,0c0.2-0.3,0.2-0.6,0-0.9c0,0,0,0,0,0l0-0.1c0,0,0,0,0,0c-0.2-0.3-0.6-0.5-0.9-0.5c-0.4,0-0.7,0.2-0.9,0.5
				c0,0,0,0,0,0l0,0.1c0,0,0,0,0,0c-0.2,0.3-0.2,0.7,0,1l0,0l0,0.1c0,0,0,0,0,0c0,0,0,0,0,0c0,0,0,0,0,0c0.2,0.3,0.5,0.4,0.9,0.4
				S10.1,27.6,10.4,27.3z"/>
			<path class="st0" d="M13.3,25.8c0-0.3-0.2-0.7-0.4-0.9c-0.1-0.3-0.3-0.6-0.6-0.8c-0.3-0.2-0.7-0.2-1.1-0.1
				c-0.1-0.3-0.3-0.6-0.6-0.8S9.8,23,9.5,23.1C9.1,23,8.8,23,8.4,23.2c-0.3,0.2-0.6,0.5-0.6,0.8c-0.4-0.1-0.7-0.1-1.1,0.1
				c-0.3,0.2-0.5,0.5-0.6,0.8c-0.3,0.2-0.4,0.6-0.4,0.9c0,0.3,0.2,0.7,0.4,0.9c-0.3,0.2-0.4,0.6-0.4,0.9c0,0.3,0.2,0.7,0.4,0.9
				c0.1,0.4,0.4,0.7,0.8,0.9c0.1,0.1,0.3,0.1,0.5,0.1c0.1,0,0.3,0,0.4-0.1c0.1,0.3,0.2,0.5,0.5,0.7c0.2,0.2,0.5,0.3,0.8,0.3V35h0.9
				v-4.6h0c0.6,0,1.1-0.4,1.3-1c0.1,0,0.3,0.1,0.4,0.1c0.2,0,0.3,0,0.5-0.1c0.4-0.1,0.7-0.5,0.8-0.9c0.3-0.2,0.4-0.6,0.4-0.9
				c0-0.3-0.2-0.7-0.4-0.9C13.1,26.5,13.3,26.1,13.3,25.8z M12.5,27.1c0.2,0.1,0.2,0.3,0.2,0.5c0,0.2-0.1,0.4-0.3,0.5l-0.2,0.1
				l0,0.2c0,0.2-0.2,0.4-0.4,0.5c-0.1,0-0.2,0-0.3,0c-0.1,0-0.1,0-0.2,0l-0.6-0.2l-0.1,0.6c-0.1,0.3-0.4,0.6-0.7,0.6l-0.3,0v0
				l-0.6,0c-0.2,0-0.3-0.1-0.4-0.1c-0.1-0.1-0.2-0.2-0.3-0.4l-0.1-0.6l-0.6,0.2c-0.1,0-0.1,0-0.2,0c-0.1,0-0.2,0-0.3,0
				c-0.2-0.1-0.4-0.3-0.4-0.5l0-0.2l-0.2-0.1c-0.2-0.1-0.3-0.3-0.3-0.5c0-0.2,0.1-0.4,0.2-0.5L7,26.7l-0.5-0.4
				c-0.2-0.1-0.3-0.3-0.2-0.5c0-0.2,0.1-0.4,0.3-0.5l0.1-0.1l0-0.2c0-0.2,0.2-0.4,0.3-0.5c0.1-0.1,0.2-0.1,0.4-0.1
				c0.1,0,0.2,0,0.2,0l0.6,0.2l0.1-0.6c0-0.2,0.2-0.4,0.4-0.5c0.1-0.1,0.2-0.1,0.4-0.1c0.1,0,0.2,0,0.2,0l0.2,0.1l0.2-0.1
				c0.1,0,0.2,0,0.2,0c0.1,0,0.2,0,0.4,0.1c0.2,0.1,0.3,0.3,0.4,0.5l0.1,0.6l0.6-0.2c0.1,0,0.2,0,0.2,0c0.1,0,0.3,0,0.4,0.1
				c0.2,0.1,0.3,0.3,0.3,0.5l0,0.2l0.1,0.1c0.2,0.1,0.3,0.3,0.3,0.5c0,0.2-0.1,0.4-0.2,0.5L12,26.7L12.5,27.1z"/>
			<path class="st0" d="M7.9,35C4.8,35.3,5,32.3,5,32.3S8.2,32.1,7.9,35z"/>
			<path class="st0" d="M14,32.3C10.9,32,11.1,35,11.1,35S14.3,35.2,14,32.3z"/>
		</g>
		<g>
			<g>
				<path class="st0" d="M26.7,5c-0.7,0.6-0.9,1.7-0.4,2.4l2.7,4.1L28,13c-0.9-0.6-2-0.3-2.7,0.6c-0.6,1-0.4,2.3,0.5,3
					c0.9,0.7,2.2,0.4,2.8-0.5c0.4-0.7,0.5-1.5,0.2-2.2l1.2-1.8l1.2,1.8c-0.3,0.7-0.3,1.5,0.2,2.2c0.6,1,1.9,1.2,2.8,0.5
					c0.9-0.7,1.1-2,0.5-3C34,12.7,32.9,12.5,32,13l-1-1.5l2.7-4.1C34.2,6.7,34,5.6,33.3,5L30,10L26.7,5z M28.1,14.9
					c0,0.6-0.5,1.1-1,1.1s-1-0.5-1-1.1c0-0.6,0.5-1.1,1-1.1S28.1,14.2,28.1,14.9z M34,14.9c0,0.6-0.5,1.1-1,1.1c-0.6,0-1-0.5-1-1.1
					c0-0.6,0.5-1.1,1-1.1C33.6,13.7,34,14.2,34,14.9z"/>
			</g>
		</g>
	</g>
	<rect class="st1" width="40" height="40"/>
</g>
</svg>
