<?xml version="1.0" encoding="utf-8"?>
<!-- Generator: Adobe Illustrator 23.0.2, SVG Export Plug-In . SVG Version: 6.00 Build 0)  -->
<svg version="1.1" id="Layer_1" xmlns="http://www.w3.org/2000/svg" xmlns:xlink="http://www.w3.org/1999/xlink" x="0px" y="0px"
	 viewBox="0 0 40 40" style="enable-background:new 0 0 40 40;" xml:space="preserve">
<style type="text/css">
	.st0{fill:#FFFFFF;}
</style>
<g id="guides">
</g>
<g id="Layer_2">
</g>
<g>
	<g>
	</g>
	<g>
		<g>
			<path class="st0" d="M14.7,7.5c0.2-0.4,0.5-0.8,0.8-1.2c-0.5-0.1-0.9-0.2-1.2-0.1c-0.2,0.1-0.5,0.5-0.8,1
				C13.8,7.3,14.2,7.4,14.7,7.5z"/>
			<path class="st0" d="M19.9,6.4c0.4-0.3,0.8-0.6,1.2-0.8c-0.4-0.3-0.7-0.5-1-0.5c-0.3,0-0.7,0.2-1.2,0.6C19.2,5.8,19.5,6,19.9,6.4
				z"/>
			<path class="st0" d="M10.4,10.5c0-0.5,0.1-1,0.2-1.4c-0.5,0-0.8,0.1-1,0.2C9.4,9.5,9.2,10,9.1,10.7C9.6,10.6,10.1,10.5,10.4,10.5
				z"/>
			<path class="st0" d="M7.4,15c-0.1-0.5-0.2-1-0.2-1.4c-0.5,0.2-0.8,0.5-0.9,0.7c-0.1,0.2-0.1,0.7,0,1.3C6.6,15.4,7,15.2,7.4,15z"
				/>
			<path class="st0" d="M34.4,18.7c-0.2,0.3-0.5,0.6-0.7,0.9c0.3,0.4,0.6,0.8,0.8,1.3c0.3-0.4,0.5-0.7,0.5-0.9
				C35,19.7,34.8,19.2,34.4,18.7z"/>
			<path class="st0" d="M32.6,14.5c0.4,0.2,0.8,0.5,1.1,0.7c0.1-0.6,0.2-1.1,0-1.4c-0.1-0.2-0.4-0.5-0.9-0.7
				C32.8,13.7,32.7,14.1,32.6,14.5z"/>
			<path class="st0" d="M25,7.2C25.5,7.1,26,7,26.4,7c-0.3-0.5-0.5-0.8-0.8-0.9c-0.3-0.1-0.7-0.1-1.3,0.1C24.6,6.5,24.8,6.9,25,7.2z
				"/>
			<path class="st0" d="M29.6,10.3c0.5,0,1,0.1,1.4,0.2c0-0.6-0.2-1-0.3-1.2C30.5,9,30,8.9,29.4,8.8C29.5,9.3,29.5,9.8,29.6,10.3z"
				/>
			<path class="st0" d="M6.3,20.1C6,19.8,5.8,19.4,5.6,19C5.2,19.6,5,20,5,20.3c0,0.2,0.2,0.6,0.5,0.9C5.7,20.8,6,20.4,6.3,20.1z"/>
			<path class="st0" d="M29.6,29.5c0,0.5-0.1,1-0.3,1.4c0.7,0,1.3-0.2,1.5-0.4c0.2-0.2,0.3-0.7,0.4-1.3
				C30.7,29.4,30.1,29.5,29.6,29.5z"/>
			<path class="st0" d="M32.7,24.9c0.2,0.5,0.3,1,0.4,1.4c0.4-0.2,0.6-0.4,0.7-0.5c0.1-0.3,0.2-0.8,0-1.5
				C33.5,24.5,33.1,24.7,32.7,24.9z"/>
			<path class="st0" d="M25.4,32.4c-0.2,0.4-0.4,0.8-0.7,1.1c0.5,0.1,0.9,0.1,1.1,0c0.2-0.1,0.5-0.5,0.8-1
				C26.2,32.5,25.8,32.5,25.4,32.4z"/>
			<path class="st0" d="M10.4,29.8c-0.5,0-0.9-0.1-1.3-0.2c0.1,0.5,0.2,0.9,0.4,1.1c0.2,0.2,0.6,0.3,1.1,0.4
				C10.6,30.6,10.5,30.2,10.4,29.8z"/>
			<path class="st0" d="M7.4,25.3c-0.4-0.2-0.8-0.4-1.2-0.6C6,25.1,6,25.5,6.1,25.8C6.2,26,6.5,26.3,7,26.6
				C7.1,26.2,7.2,25.7,7.4,25.3z"/>
			<path class="st0" d="M20.1,33.6c-0.4,0.4-0.7,0.6-1.1,0.9c0.4,0.4,0.8,0.6,1.1,0.6c0.3,0,0.7-0.2,1.2-0.6
				C20.9,34.2,20.5,33.9,20.1,33.6z"/>
			<path class="st0" d="M14.8,32.6c-0.4,0.1-0.8,0.2-1.2,0.3c0.4,0.7,0.8,1.1,1.1,1.2c0.2,0.1,0.6,0,1.1-0.2
				C15.4,33.5,15,33,14.8,32.6z"/>
		</g>
		<path class="st0" d="M32.1,19.6l0.4-0.3c1-0.9,1.4-1.8,1.4-2c0-0.2-0.8-1.2-2.3-1.9l-0.4-0.2l0.1-0.4c0.5-1.5,0.4-2.6,0.2-2.8
			c-0.1-0.1-0.8-0.5-2.2-0.5c-0.1,0-0.3,0-0.4,0l-0.5,0l0-0.5c0.1-1.6-0.3-2.6-0.5-2.8c0,0-0.2-0.1-0.7-0.1c-0.7,0-1.5,0.2-2.3,0.5
			l-0.4,0.2l-0.2-0.4c-0.5-1.3-1.3-2.1-1.6-2.1c-0.4,0-1.4,0.5-2.4,1.5L19.8,8l-0.3-0.4c-0.9-1-1.9-1.4-2.2-1.4
			c-0.2,0-1.2,0.8-1.8,2.3L15.3,9l-0.4-0.2c-0.7-0.3-1.5-0.4-2.1-0.4c-0.4,0-0.6,0.1-0.6,0.1c-0.2,0.1-0.7,1.2-0.6,2.8l0,0.5l-0.5,0
			c-0.2,0-0.4,0-0.6,0c-1.1,0-1.8,0.3-2,0.4c-0.1,0.2-0.4,1.4,0.2,3.1l0.2,0.5l-0.5,0.2c-1.4,0.5-2.1,1.2-2.1,1.4
			c-0.1,0.2,0.2,1.3,1.3,2.5l0.3,0.3l-0.3,0.3c-1.1,1.2-1.4,2.3-1.3,2.6c0.1,0.2,0.8,0.9,2.3,1.4L9,24.6l-0.2,0.5
			c-0.7,1.4-0.7,2.6-0.5,2.8c0.1,0.2,1.2,0.8,2.9,0.8l0.5,0l0,0.5c0,1.5,0.5,2.4,0.6,2.5c0,0,0.1,0.1,0.5,0.1c0.6,0,1.4-0.2,2.1-0.5
			l0.4-0.2l0.2,0.4c0.8,1.6,1.8,2.3,2,2.3l0,0c0.3,0,1.2-0.5,2.1-1.6l0.3-0.4l0.4,0.4c1,1,2,1.5,2.4,1.5c0.2,0,1.2-0.9,1.8-2.4
			l0.2-0.4l0.4,0.2c0.7,0.3,1.4,0.4,2,0.4c0.4,0,0.6-0.1,0.6-0.1c0.2-0.1,0.6-1.1,0.6-2.5v-0.5l0.8,0c1.6,0,2.5-0.5,2.7-0.6
			c0.1-0.2,0.2-1.4-0.5-3l-0.2-0.5l0.5-0.2c1.4-0.4,2.1-1.1,2.1-1.3c0.1-0.2-0.2-1.5-1.4-2.8L32.1,19.6z M20,31.5
			c-6.4,0-11.5-5.1-11.5-11.5c0-6.4,5.1-11.5,11.5-11.5c6.4,0,11.5,5.1,11.5,11.5C31.5,26.4,26.4,31.5,20,31.5z"/>
		<g>
			<rect x="8" y="22" class="st0" width="24" height="0.8"/>
			<rect x="8" y="17.3" class="st0" width="24" height="0.8"/>
		</g>
		<g>
			
				<rect x="5.6" y="19.6" transform="matrix(-1.836970e-16 1 -1 -1.836970e-16 37.625 2.375)" class="st0" width="24" height="0.8"/>
			
				<rect x="10.4" y="19.6" transform="matrix(-1.836970e-16 1 -1 -1.836970e-16 42.375 -2.375)" class="st0" width="24" height="0.8"/>
		</g>
		<g>
			<polygon class="st0" points="22.8,17.2 22.8,17.8 28.5,12 28,11.5 22.2,17.2 			"/>
			<polygon class="st0" points="17.3,22.7 17.3,22.2 11.5,28 12,28.5 17.8,22.7 			"/>
		</g>
		<g>
			<polygon class="st0" points="17.3,17.2 17.8,17.2 12,11.5 11.5,12 17.3,17.8 			"/>
			<polygon class="st0" points="22.8,22.2 22.8,22.7 22.2,22.7 28,28.5 28.5,28 			"/>
		</g>
	</g>
</g>
</svg>
