<?xml version="1.0" encoding="utf-8"?>
<!-- Generator: Adobe Illustrator 23.0.2, SVG Export Plug-In . SVG Version: 6.00 Build 0)  -->
<svg version="1.1" id="Layer_1" xmlns="http://www.w3.org/2000/svg" xmlns:xlink="http://www.w3.org/1999/xlink" x="0px" y="0px"
	 viewBox="0 0 40 40" style="enable-background:new 0 0 40 40;" xml:space="preserve">
<style type="text/css">
	.st0{fill:#FFFFFF;}
</style>
<g id="guides">
</g>
<g id="Layer_2">
</g>
<g>
	<g>
	</g>
	<g>
		<path class="st0" d="M20,23v12c1.1,0,2-0.9,2-2.1v-7.9C22,23.9,21.1,23,20,23z"/>
		<path class="st0" d="M23,5c-6.6,0-12,5.4-12,12c0,0.3,0,0.7,0.1,1h1c0-0.3-0.1-0.7-0.1-1c0-1,0.1-1.9,0.4-2.8
			c0.7,0.5,2.8,1.9,4.5,1.9c0.1,0,0.3,0,0.4,0c0.6-0.1,1.2-0.4,1.5-0.9c0.6-0.9,1-1.7,1.2-2.5c0.5-1.4,0.7-1.8,1.9-1.5
			c1.5,0.4,2.7,0.2,3.5-0.4c0.9-0.7,1.3-2.1,1.3-4.1c2.7,1,5,3,6.2,5.7c-1.3,0.2-5,1-6.2,3.4c-0.7,1.3-0.4,2.9,0.6,4.7
			c2.2,3.6-1.1,7-1.2,7.1l0,0c-0.7,0.2-1.4,0.3-2.1,0.4v1c6.2-0.5,11-5.7,11-11.9C35,10.4,29.6,5,23,5z M25,10.2
			c-0.6,0.5-1.6,0.6-2.9,0.3c-1.8-0.5-2.3,0.7-2.8,2c-0.3,0.7-0.6,1.5-1.1,2.3c-0.3,0.3-0.6,0.5-1,0.6c-1.8,0.2-4.4-1.8-4.5-1.9
			C14.1,9.1,18.2,6,23,6c1,0,2,0.2,3,0.4C26,8.3,25.7,9.6,25,10.2z M27.5,27c1-1.4,2.3-4.1,0.5-7c-0.9-1.5-1.1-2.9-0.6-3.9
			c1.1-2.2,4.8-2.9,5.8-3c0.5,1.2,0.7,2.6,0.7,3.9C34,21.5,31.3,25.3,27.5,27z"/>
		<path class="st0" d="M11.4,5.8L9.7,7.4l1.2,3.6l-0.4,0.4l-1.8-3l-1.9,1.8l0.2,1l-0.3,0.3l-0.4-1.2L5,9.9l0.3-0.3l1,0.2l1.8-1.9
			L5.1,6l0.4-0.4l3.6,1.2l1.6-1.6C10.8,5.1,10.9,5,11,5c0,0,0,0,0,0c0.1,0,0.2,0,0.3,0.1c0.1,0.1,0.1,0.2,0.1,0.3
			C11.5,5.6,11.4,5.7,11.4,5.8z"/>
		<path class="st0" d="M7,23c-1.1,0-2,0.9-2,2.1v7.9c0,1.1,0.9,2,2,2.1V23z"/>
		<path class="st0" d="M8.5,23v12h10V23H8.5z M13.5,30.3L10,26.8v-2.3h2.3l3.5,3.5L13.5,30.3z"/>
		<path class="st0" d="M11.5,20c-0.6,0-1,0.4-1,1v2h1v-2h4v2h1v-2c0-0.6-0.4-1-1-1H11.5z"/>
		<circle class="st0" cx="11.8" cy="26.3" r="0.5"/>
		<g>
			<g>
				<path class="st0" d="M8.2,19.8c-0.4-0.4-0.7-0.8-1-1.2l0.7-0.5c0.3,0.4,0.6,0.7,0.9,1.1L8.2,19.8z M6.3,17.4
					c-0.3-0.5-0.5-0.9-0.7-1.4l0.8-0.3c0.2,0.4,0.4,0.9,0.6,1.3L6.3,17.4z M5.2,14.5C5.1,14,5,13.4,5,12.9l0.9-0.1
					c0,0.5,0.1,0.9,0.2,1.4L5.2,14.5z"/>
			</g>
		</g>
	</g>
</g>
</svg>
