<?xml version="1.0" encoding="utf-8"?>
<!-- Generator: Adobe Illustrator 23.0.2, SVG Export Plug-In . SVG Version: 6.00 Build 0)  -->
<svg version="1.1" id="Layer_1" xmlns="http://www.w3.org/2000/svg" xmlns:xlink="http://www.w3.org/1999/xlink" x="0px" y="0px"
	 viewBox="0 0 40 40" style="enable-background:new 0 0 40 40;" xml:space="preserve">
<style type="text/css">
	.st0{fill:#FFFFFF;}
</style>
<g id="guides">
</g>
<g id="Layer_2">
</g>
<g>
	<g>
	</g>
	<g>
		<path class="st0" d="M32,5H8C6.9,5,6,5.9,6,7v26c0,1.1,0.9,2,2,2h24c1.1,0,2-0.9,2-2V7C34,5.9,33.1,5,32,5z M10.3,33h-3v-3h3V33z
			 M10.3,28.4h-3v-3h3V28.4z M10.3,23.8h-3v-3h3V23.8z M10.3,19.2h-3v-3h3V19.2z M10.3,14.6h-3v-3h3V14.6z M10.3,10h-3V7h3V10z
			 M28.5,33h-17V20.8h17V33z M28.5,19.2h-17V7h17V19.2z M32.8,33h-3v-3h3V33z M32.8,28.4h-3v-3h3V28.4z M32.8,23.8h-3v-3h3V23.8z
			 M32.8,19.2h-3v-3h3V19.2z M32.8,14.6h-3v-3h3V14.6z M32.8,10h-3V7h3V10z"/>
	</g>
</g>
</svg>
