<?xml version="1.0" encoding="utf-8"?>
<!-- Generator: Adobe Illustrator 23.0.2, SVG Export Plug-In . SVG Version: 6.00 Build 0)  -->
<svg version="1.1" id="Layer_1" xmlns="http://www.w3.org/2000/svg" xmlns:xlink="http://www.w3.org/1999/xlink" x="0px" y="0px"
	 viewBox="0 0 40 40" style="enable-background:new 0 0 40 40;" xml:space="preserve">
<style type="text/css">
	.st0{fill:none;}
	.st1{fill:#FFFFFF;}
</style>
<g id="guides">
</g>
<g id="Layer_2">
</g>
<g>
	<g>
		<rect class="st0" width="40" height="40"/>
	</g>
	<g>
		<path class="st1" d="M20,5c0,0-6,2.7-6,9.4c0,2.7,1.5,4.1,3,4.9c0.8,0.4,1.7,0.6,2.6,0.7v3h0.8v-3c0.9-0.1,1.8-0.3,2.6-0.7
			c1.5-0.8,3-2.2,3-4.9C26,7.7,20,5,20,5z M23.9,9.6l-3.5,3.5v-7C21.3,6.6,22.8,7.7,23.9,9.6z M19.6,6.1v10l-4.5-4.5
			C16.1,8.5,18.4,6.8,19.6,6.1z M17.3,18.6c-1.7-0.9-2.6-2.3-2.6-4.2c0-0.7,0.1-1.3,0.2-1.9l4.7,4.7v2.1C18.8,19.2,18,19,17.3,18.6z
			 M22.7,18.6c-0.7,0.4-1.5,0.6-2.3,0.6v-5.1l3.9-3.9c0.6,1.1,1,2.5,1,4.1C25.2,16.3,24.4,17.8,22.7,18.6z"/>
		<path class="st1" d="M31.9,21.4c-0.1-0.2-0.4-0.4-0.7-0.4c-2.4,0-4.6,1.2-5.8,3.1h-9.6c-1.1,0-2.1,0.4-2.8,1.1l-4.8,4.6
			C8.1,30,8,30.2,8,30.4c0,0.2,0.1,0.4,0.2,0.5c2,1.9,4,3.8,4,3.9c0.2,0.1,0.4,0.2,0.6,0.2c0.2,0,0.4-0.1,0.6-0.2l3.1-2.9h6.7
			c2.1,0,4-1.1,5-2.9c0,0,2.5-4.5,3.7-6.8C32,21.9,32,21.6,31.9,21.4z M27.3,28.5c-0.8,1.5-2.4,2.4-4.1,2.4h-7.1l-3.2,3.1
			c-0.5-0.4-2.1-2-3.7-3.6l4.6-4.4c0.6-0.6,1.3-0.9,2.2-0.9h8.9l-1,1.7c-0.3,0.5-0.8,0.7-1.3,0.7h-4.8c-0.3,0-0.5,0.2-0.5,0.5
			s0.2,0.5,0.5,0.5h5.3c0.5,0,1-0.3,1.3-0.7l1.5-2.7l0.3-0.5c1-1.6,2.7-2.5,4.6-2.6C29.5,24.4,27.3,28.4,27.3,28.5z"/>
	</g>
</g>
</svg>
