<?xml version="1.0" encoding="utf-8"?>
<!-- Generator: Adobe Illustrator 23.0.2, SVG Export Plug-In . SVG Version: 6.00 Build 0)  -->
<svg version="1.1" id="Layer_1" xmlns="http://www.w3.org/2000/svg" xmlns:xlink="http://www.w3.org/1999/xlink" x="0px" y="0px"
	 viewBox="0 0 40 40" style="enable-background:new 0 0 40 40;" xml:space="preserve">
<style type="text/css">
	.st0{fill:none;}
	.st1{fill:#FFFFFF;}
</style>
<g id="guides">
</g>
<g id="Layer_2">
</g>
<g>
	<g>
		<rect class="st0" width="40" height="40"/>
	</g>
	<g>
		<path class="st1" d="M31,12l-3.1,0l-3-4.5C24.6,7.2,24.3,7,24,7h-8.1c-0.3,0-0.6,0.2-0.8,0.4L11.9,12L9,12c-2.2,0-4,1.8-4,4v13
			c0,2.2,1.8,4,4,4h22c2.2,0,4-1.8,4-4V16C35,13.8,33.2,12,31,12z M33.5,29c0,1.4-1.2,2.5-2.5,2.5H9c-1.4,0-2.5-1.2-2.5-2.5V16
			c0-1.4,1.1-2.5,2.5-2.5l3.7,0l3.4-4.9h7.6l3.3,4.9l3.9,0c1.4,0,2.5,1.1,2.5,2.5V29z"/>
		<path class="st1" d="M20.1,14.3c-3.9,0-7,3.1-7,7c0,3.8,3.1,7,7,7c3.9,0,7-3.1,7-7C27.1,17.5,23.9,14.3,20.1,14.3z M20.1,26.8
			c-3,0-5.5-2.5-5.5-5.5s2.5-5.5,5.5-5.5s5.5,2.5,5.5,5.5S23.1,26.8,20.1,26.8z"/>
		<ellipse class="st1" cx="20.1" cy="21.3" rx="3" ry="3"/>
		<ellipse class="st1" cx="29.5" cy="17.2" rx="1.1" ry="1.1"/>
	</g>
</g>
</svg>
