<?xml version="1.0" encoding="utf-8"?>
<!-- Generator: Adobe Illustrator 23.0.2, SVG Export Plug-In . SVG Version: 6.00 Build 0)  -->
<svg version="1.1" id="Layer_1" xmlns="http://www.w3.org/2000/svg" xmlns:xlink="http://www.w3.org/1999/xlink" x="0px" y="0px"
	 viewBox="0 0 40 40" style="enable-background:new 0 0 40 40;" xml:space="preserve">
<style type="text/css">
	.st0{fill:#FFFFFF;}
</style>
<g id="guides">
</g>
<g id="Layer_2">
</g>
<g>
	<g>
	</g>
	<g>
		<path class="st0" d="M29.4,10l2.7-2.7l-0.7-0.7l-3.3,3.3L23.2,5l-0.7,0.7l4.3,4.3H5v20h30V10H29.4z M19.9,29
			c0-3.1,2.5-5.6,5.6-5.6S31,25.9,31,29H19.9z M34,29h-2c0-3.6-2.9-6.6-6.6-6.6s-6.6,2.9-6.6,6.6H6V11h8.5l-4.6,4.6l0.7,0.7l5.3-5.3
			H34V29z"/>
		<rect x="12.7" y="17.1" transform="matrix(0.7071 -0.7071 0.7071 0.7071 -8.1059 15.5728)" class="st0" width="4.1" height="1"/>
		<rect x="12" y="34" class="st0" width="16" height="1"/>
		<path class="st0" d="M25.4,23.3c1.9,0,3.5-1.6,3.5-3.5s-1.6-3.5-3.5-3.5s-3.5,1.6-3.5,3.5S23.5,23.3,25.4,23.3z M25.4,17.1
			c1.5,0,2.6,1.2,2.6,2.6c0,1.5-1.2,2.6-2.6,2.6s-2.6-1.2-2.6-2.6C22.7,18.3,23.9,17.1,25.4,17.1z"/>
	</g>
</g>
</svg>
