<?xml version="1.0" encoding="utf-8"?>
<!-- Generator: Adobe Illustrator 23.0.2, SVG Export Plug-In . SVG Version: 6.00 Build 0)  -->
<svg version="1.1" id="Layer_1" xmlns="http://www.w3.org/2000/svg" xmlns:xlink="http://www.w3.org/1999/xlink" x="0px" y="0px"
	 viewBox="0 0 40 40" style="enable-background:new 0 0 40 40;" xml:space="preserve">
<style type="text/css">
	.st0{fill:#FFFFFF;}
</style>
<g id="guides">
</g>
<g id="Layer_2">
</g>
<g>
	<g>
	</g>
	<g>
		<path class="st0" d="M33,15.1l-9-1.3L20,6l-4,7.9l-9,1.3l6.5,6.2L12,30l8-4.1l8,4.1l-1.5-8.7L33,15.1z M20,24.2l-6,3.1l1.1-6.5
			l-4.8-4.6l6.7-0.9l3-5.9l3,5.9l6.7,0.9l-4.8,4.6l1.1,6.5L20,24.2z"/>
		<polygon class="st0" points="20,20.8 18,21.9 18.4,19.7 16.9,18.3 19,18 20,15.9 21,18 23.1,18.3 21.6,19.7 22,21.9 		"/>
		<rect x="25.9" y="9.2" transform="matrix(0.6114 -0.7913 0.7913 0.6114 2.7909 25.6992)" class="st0" width="3.4" height="1.6"/>
		
			<rect x="31.2" y="21.9" transform="matrix(0.3353 -0.9421 0.9421 0.3353 -1.0663 45.9398)" class="st0" width="1.6" height="3.6"/>
		<rect x="11.7" y="8.3" transform="matrix(0.7849 -0.6196 0.6196 0.7849 -3.5178 9.882)" class="st0" width="1.6" height="3.4"/>
		<rect x="6.2" y="22.9" transform="matrix(0.938 -0.3466 0.3466 0.938 -7.7108 4.236)" class="st0" width="3.6" height="1.6"/>
		<rect x="19.2" y="30.3" class="st0" width="1.6" height="3.7"/>
	</g>
</g>
</svg>
